<svg width="77" height="40" viewBox="0 0 77 40" fill="none" xmlns="http://www.w3.org/2000/svg">
<g clip-path="url(#clip0_48_2442)">
<path d="M0 21.65L9.15 30.5L18 21.65" stroke="#C4C4C4"/>
<path d="M9.1499 9.34998V30.65" stroke="#C4C4C4"/>
<path d="M43.0215 23.4844L45.209 12.7812H47.6602L44.3789 27H42.0156L39.3105 16.6191L36.5469 27H34.1738L30.8926 12.7812H33.3438L35.5508 23.4648L38.2656 12.7812H40.3359L43.0215 23.4844ZM48.4805 21.6191C48.4805 20.584 48.6855 19.653 49.0957 18.8262C49.5059 17.9928 50.082 17.3548 50.8242 16.9121C51.5664 16.4629 52.4193 16.2383 53.3828 16.2383C54.8086 16.2383 55.9642 16.6973 56.8496 17.6152C57.7415 18.5332 58.2233 19.7507 58.2949 21.2676L58.3047 21.8242C58.3047 22.8659 58.1029 23.7969 57.6992 24.6172C57.3021 25.4375 56.7292 26.0723 55.9805 26.5215C55.2383 26.9707 54.3789 27.1953 53.4023 27.1953C51.9115 27.1953 50.7168 26.7005 49.8184 25.7109C48.9264 24.7148 48.4805 23.39 48.4805 21.7363V21.6191ZM50.8535 21.8242C50.8535 22.9115 51.0781 23.7643 51.5273 24.3828C51.9766 24.9948 52.6016 25.3008 53.4023 25.3008C54.2031 25.3008 54.8249 24.9883 55.2676 24.3633C55.7168 23.7383 55.9414 22.8236 55.9414 21.6191C55.9414 20.5514 55.7103 19.7051 55.248 19.0801C54.7923 18.4551 54.1706 18.1426 53.3828 18.1426C52.6081 18.1426 51.9928 18.4518 51.5371 19.0703C51.0814 19.6823 50.8535 20.6003 50.8535 21.8242ZM65.8438 18.6016C65.5312 18.5495 65.209 18.5234 64.877 18.5234C63.7897 18.5234 63.0573 18.9401 62.6797 19.7734V27H60.3066V16.4336H62.5723L62.6309 17.6152C63.2038 16.6973 63.998 16.2383 65.0137 16.2383C65.3522 16.2383 65.6322 16.2839 65.8535 16.375L65.8438 18.6016ZM70.7754 22.4688L69.7207 23.5527V27H67.3477V12H69.7207V20.6523L70.4629 19.7246L73.3828 16.4336H76.2344L72.3086 20.8379L76.6543 27H73.9102L70.7754 22.4688Z" fill="#A2A3AE"/>
</g>
<defs>
<clipPath id="clip0_48_2442">
<rect width="77" height="40" fill="white"/>
</clipPath>
</defs>
</svg>
