<svg width="41" height="41" viewBox="0 0 41 41" fill="none" xmlns="http://www.w3.org/2000/svg">
<g clip-path="url(#clip0_178951_59)">
<g clip-path="url(#clip1_178951_59)">
<path d="M29.4994 17.6117C29.4994 16.4718 29.1334 15.4009 28.4347 14.4683C28.7008 13.5702 28.7674 12.4303 28.7008 11.1177C28.6676 10.565 28.235 10.1505 27.7027 10.1505C27.4032 10.1505 24.8746 10.1851 23.4106 11.5322C22.1463 11.2904 20.8154 11.2904 19.5178 11.5322C18.0872 10.1851 15.5585 10.1505 15.2258 10.1505C14.6934 10.1505 14.2609 10.565 14.2276 11.1177C14.1278 12.4303 14.2276 13.5702 14.4938 14.4683C13.7951 15.4355 13.4291 16.5063 13.4291 17.6117C13.4291 20.0296 15.2258 22.2058 17.9541 23.2421C17.8543 23.4493 17.7877 23.6911 17.7212 23.9329C14.8265 23.622 13.4624 20.8932 13.3958 20.7895C13.1629 20.2714 12.5641 20.0642 12.065 20.3405C11.5659 20.5823 11.3663 21.2041 11.6324 21.7222C11.699 21.8949 13.5289 25.5909 17.5548 26.0054V29.1142C17.5548 29.7015 17.9873 30.1505 18.553 30.1505H24.3755C24.9411 30.1505 25.3737 29.7015 25.3737 29.1142V25.0037C25.3737 24.3819 25.2406 23.7947 25.0077 23.2766C27.7027 22.2058 29.4994 20.0642 29.4994 17.6117Z" fill="white"/>
</g>
</g>
<defs>
<clipPath id="clip0_178951_59">
<rect width="18" height="20" fill="white" transform="translate(11.5 10.1505)"/>
</clipPath>
<clipPath id="clip1_178951_59">
<rect width="18" height="20" fill="white" transform="translate(11.5 10.1505)"/>
</clipPath>
</defs>
</svg>
