<svg width="66" height="66" viewBox="0 0 66 66" fill="none" xmlns="http://www.w3.org/2000/svg">
<path fill-rule="evenodd" clip-rule="evenodd" d="M15.3335 22.5833C15.3335 22.031 15.7812 21.5833 16.3335 21.5833H49.6668C50.2191 21.5833 50.6668 22.031 50.6668 22.5833C50.6668 23.1355 50.2191 23.5833 49.6668 23.5833H16.3335C15.7812 23.5833 15.3335 23.1355 15.3335 22.5833ZM15.3335 32.9999C15.3335 32.4476 15.7812 31.9999 16.3335 31.9999L49.6668 31.9999C50.2191 31.9999 50.6668 32.4476 50.6668 32.9999C50.6668 33.5522 50.2191 33.9999 49.6668 33.9999L16.3335 33.9999C15.7812 33.9999 15.3335 33.5522 15.3335 32.9999ZM16.3335 42.4166C15.7812 42.4166 15.3335 42.8643 15.3335 43.4166C15.3335 43.9689 15.7812 44.4166 16.3335 44.4166H49.6668C50.2191 44.4166 50.6668 43.9689 50.6668 43.4166C50.6668 42.8643 50.2191 42.4166 49.6668 42.4166H16.3335Z" fill="white"/>
</svg>
